<?xml version="1.0" encoding="UTF-8"?>
<svg version="1.1" xmlns="http://www.w3.org/2000/svg" width="512" height="512">
<path d="M0 0 C0.9129345 -0.00297112 1.82586899 -0.00594224 2.76646817 -0.0090034 C5.80901272 -0.01763715 8.85151768 -0.01919414 11.89407349 -0.02069092 C14.0827696 -0.025323 16.27146492 -0.03034818 18.4601593 -0.03573608 C24.39665495 -0.04882767 30.3331393 -0.05529914 36.26964712 -0.05974674 C39.98519764 -0.06268373 43.70074512 -0.06678979 47.4162941 -0.07125092 C59.72879111 -0.0857042 72.0412797 -0.09503653 84.35378443 -0.09911743 C85.01660618 -0.0993402 85.67942794 -0.09956296 86.36233521 -0.09979248 C87.35779929 -0.10012463 87.35779929 -0.10012463 88.37337376 -0.10046348 C98.43840718 -0.10415912 108.50338043 -0.11895685 118.56838989 -0.14080811 C130.28445717 -0.16615871 142.00047717 -0.18098963 153.71657288 -0.18249393 C159.90759415 -0.1835376 166.09851918 -0.18935137 172.28951645 -0.20731354 C178.12216233 -0.22390695 183.9546408 -0.22589549 189.78730202 -0.21717453 C191.91477853 -0.21641005 194.04226447 -0.22066791 196.16971779 -0.23063278 C212.63078997 -0.30314316 228.25476384 1.14778127 244.11721802 5.82794189 C244.98685181 6.08212891 245.8564856 6.33631592 246.75247192 6.59820557 C285.44635747 18.35273108 317.91268886 45.94939938 337.17263794 81.36334229 C357.85765296 120.73186853 363.53330195 166.31858737 350.61721802 209.14044189 C341.75783559 237.43513383 324.75191944 262.28021549 302.36721802 281.64044189 C301.80115845 282.13270264 301.23509888 282.62496338 300.65188599 283.13214111 C296.86357225 286.33084263 292.9838816 288.79086657 288.61721802 291.14044189 C288.33749146 290.26903564 288.05776489 289.39762939 287.76956177 288.49981689 C282.39075398 272.51905035 274.54577485 258.91301615 259.33206177 250.45294189 C242.97051499 242.54289914 225.07203919 240.09427985 207.61721802 246.14044189 C191.85311584 252.76444574 179.97580987 261.97220833 172.74221802 277.89044189 C168.74530541 288.53049892 167.51397959 299.41009615 167.03909302 310.67169189 C166.97600952 312.04502686 166.97600952 312.04502686 166.91165161 313.44610596 C166.80969911 315.6774093 166.71162403 317.90880873 166.61721802 320.14044189 C145.44931492 320.18735071 124.2814205 320.22252265 103.1134758 320.24406624 C93.28283694 320.2543392 83.45223055 320.26832254 73.62161255 320.2913208 C65.04421663 320.31137748 56.46684424 320.32418718 47.88942552 320.32861888 C43.35596947 320.33120567 38.82258071 320.33720069 34.28914642 320.35190201 C-9.43220942 320.4881509 -9.43220942 320.4881509 -30.44528198 315.95294189 C-31.44494995 315.73936035 -32.44461792 315.52577881 -33.47457886 315.3057251 C-59.01162787 309.57370606 -84.43520119 297.33149496 -103.38278198 279.14044189 C-104.69122228 278.05220877 -106.00360095 276.96868974 -107.32028198 275.89044189 C-121.95027551 263.05608138 -132.42776966 245.69406413 -140.38278198 228.14044189 C-140.66105835 227.52733154 -140.93933472 226.91422119 -141.2260437 226.28253174 C-159.0183156 186.30629257 -158.82635386 139.4050016 -143.73580933 98.66290283 C-128.66070745 59.7822357 -99.34200771 30.00919278 -61.38278198 13.14044189 C-41.98680353 5.26740974 -21.00938192 -0.02167477 0 0 Z M-56.32028198 103.20294189 C-58.01080551 107.87674223 -58.25101448 112.24613129 -57.38278198 117.14044189 C-54.79350334 121.99965482 -51.55993293 124.42078272 -46.38278198 126.14044189 C-43.25699005 126.38057108 -43.25699005 126.38057108 -40.07028198 126.26544189 C-39.00164917 126.24739502 -37.93301636 126.22934814 -36.83200073 126.21075439 C-35.61963745 126.17594971 -35.61963745 126.17594971 -34.38278198 126.14044189 C-34.39768201 133.7297659 -34.43938761 141.31854668 -34.51487255 148.90750313 C-34.54909527 152.43184972 -34.57424498 155.95576506 -34.57833862 159.48028564 C-34.58345432 163.53679444 -34.62860852 167.59201469 -34.67575073 171.64825439 C-34.66985176 173.53763229 -34.66985176 173.53763229 -34.66383362 175.46517944 C-34.82633248 185.23318968 -34.82633248 185.23318968 -37.80197144 188.92120361 C-41.91765469 192.46027852 -44.61931709 192.42755954 -49.90621948 192.35137939 C-53.19143576 192.07156602 -54.93764203 191.3632964 -57.38278198 189.14044189 C-59.74335814 185.55586329 -60.60172099 182.24064004 -61.32028198 178.07794189 C-62.12334303 173.76472691 -63.01012799 171.14848464 -66.38278198 168.14044189 C-70.82891422 165.57536561 -74.3814218 164.54657268 -79.39059448 165.43341064 C-83.96171789 167.0557113 -87.39383673 170.20750344 -89.58590698 174.49200439 C-92.09195945 182.82094347 -89.11518445 192.58933864 -85.38278198 200.14044189 C-78.39362341 211.96824871 -69.42049478 217.77528555 -56.46090698 221.72637939 C-45.1100793 223.98801047 -33.35508964 221.47823512 -23.57028198 215.45294189 C-14.3921298 208.71668341 -7.58875239 199.46770899 -5.38278198 188.14044189 C-5.273665 185.53378483 -5.21533568 182.95303594 -5.20578003 180.3460083 C-5.19920883 179.56502274 -5.19263763 178.78403717 -5.18586731 177.97938538 C-5.16618981 175.40025733 -5.1544856 172.8211873 -5.14450073 170.24200439 C-5.14042521 169.35952404 -5.13634968 168.47704369 -5.13215065 167.5678215 C-5.11131597 162.89899685 -5.09700166 158.23020138 -5.08761597 153.56134033 C-5.07654249 148.74376805 -5.04212446 143.92665648 -5.00244427 139.10924721 C-4.97628678 135.39972074 -4.96792503 131.69030439 -4.96433449 127.98069382 C-4.95946817 126.20490778 -4.94785286 124.42912668 -4.92929649 122.65343094 C-4.90491755 120.16647083 -4.90586713 117.68070786 -4.91281128 115.19366455 C-4.90000122 114.46411057 -4.88719116 113.73455658 -4.87399292 112.9828949 C-4.92559335 107.89989714 -6.20154748 105.06016272 -9.38278198 101.14044189 C-13.8386065 97.40211698 -16.95922641 96.62975317 -22.72262573 96.60919189 C-23.75039879 96.60345154 -23.75039879 96.60345154 -24.79893494 96.59759521 C-26.24022908 96.59488769 -27.68157333 96.60216748 -29.12277222 96.61895752 C-31.31148545 96.64035589 -33.49690505 96.61913881 -35.68551636 96.59356689 C-44.03341969 96.57728046 -50.27139758 96.76380689 -56.32028198 103.20294189 Z M31.61721802 112.14044189 C23.99358513 122.13403022 22.14956069 133.0313492 22.18362427 145.35137939 C22.17838242 146.4813736 22.17314056 147.6113678 22.16773987 148.77560425 C22.16135655 151.1504637 22.16260837 153.52535493 22.1711731 155.90020752 C22.17967939 159.49909755 22.15087263 163.09639566 22.11917114 166.69512939 C22.06774398 183.42157745 22.80313644 197.38982769 34.58206177 210.29278564 C43.92852551 219.36882729 55.3196833 222.56837404 68.07815552 222.40997314 C79.77290015 221.51931379 89.28565023 216.59299505 97.45706177 208.26544189 C103.83507884 200.47549738 107.69675402 190.22298698 107.77835083 180.17340088 C107.78795837 179.21147324 107.79756592 178.24954559 107.8074646 177.25846863 C107.81171448 176.22823074 107.81596436 175.19799286 107.82034302 174.13653564 C107.82604309 173.06226822 107.83174316 171.98800079 107.83761597 170.88117981 C107.84705249 168.60750305 107.85359459 166.3338127 107.85745239 164.06011963 C107.8671151 160.61463895 107.8981343 157.169766 107.92971802 153.72442627 C107.93625312 151.50763291 107.9415016 149.29083531 107.94534302 147.07403564 C107.96386322 145.54993324 107.96386322 145.54993324 107.98275757 143.99504089 C107.94016149 130.02874394 103.83432757 118.6718742 94.61721802 108.14044189 C74.60463311 92.91347512 49.14160024 93.35040985 31.61721802 112.14044189 Z M138.61721802 101.14044189 C134.5212874 106.82957936 134.04263214 112.389704 134.11550903 119.20904541 C134.11010605 120.1840802 134.10470306 121.15911499 134.09913635 122.16369629 C134.086695 125.36589517 134.10310876 128.56718695 134.12112427 131.76934814 C134.12096919 134.00559028 134.11947869 136.24183269 134.11671448 138.47807312 C134.11533258 143.15593402 134.12785489 147.83348753 134.15066528 152.5112915 C134.17906538 158.49892678 134.17630514 164.48605222 134.16357517 170.47372532 C134.15661169 175.08833653 134.16441473 179.70283045 134.1768322 184.31742668 C134.181339 186.52496834 134.18169026 188.73252261 134.1777668 190.94006538 C134.17484766 194.02738273 134.19139521 197.1140037 134.21316528 200.20123291 C134.20866364 201.10792221 134.20416199 202.01461151 134.19952393 202.94877625 C134.26358321 208.43260237 135.00301237 212.28830462 137.61721802 217.14044189 C141.9751973 221.28052222 145.51336154 222.51761567 151.55862427 222.41778564 C156.15374108 221.79870919 158.86264993 219.0254568 161.75674438 215.63104248 C164.26001902 210.93442558 164.17943474 207.1577861 164.13479614 201.91583252 C164.14180542 200.90046921 164.1488147 199.8851059 164.15603638 198.838974 C164.17360442 195.49126632 164.16199729 192.14440779 164.14846802 188.79669189 C164.15116326 186.46551349 164.15504595 184.13433618 164.1600647 181.80316162 C164.16595816 176.92085044 164.15740132 172.03883226 164.13870239 167.15655518 C164.11591337 160.90188524 164.12903721 154.64790189 164.15299225 148.39325714 C164.16745406 143.58051389 164.16284237 138.76793311 164.15248108 133.95518494 C164.14981488 131.64912332 164.15307978 129.34304689 164.16239929 127.03700256 C164.17257075 123.81262194 164.15705419 120.58934947 164.13479614 117.36505127 C164.14289307 116.41422165 164.15098999 115.46339203 164.15933228 114.48374939 C164.0857269 108.72113816 163.37265942 105.57240939 159.61721802 101.14044189 C156.34491798 98.26478428 153.74368251 97.24875579 149.36721802 96.82794189 C144.99019602 97.19269373 141.89430144 98.25170774 138.61721802 101.14044189 Z M193.30471802 103.57794189 C189.90048077 108.74733919 190.46363746 114.59255552 190.45608521 120.57720947 C190.4511203 121.52093918 190.4461554 122.46466888 190.44104004 123.43699646 C190.42645845 126.55299616 190.41962326 129.66894496 190.41409302 132.78497314 C190.40833851 134.95584616 190.40258081 137.12671917 190.39682007 139.29759216 C190.38632164 143.84783159 190.38047131 148.3980534 190.37698364 152.94830322 C190.37149975 158.76884184 190.3474689 164.58914645 190.31901169 170.4096117 C190.30035691 174.89384128 190.2951782 179.37801479 190.29364777 183.86227989 C190.29062741 186.00760872 190.28261979 188.1529367 190.26946259 190.29822731 C190.25234205 193.30416131 190.25429705 196.30952728 190.26077271 199.31549072 C190.25155792 200.19524567 190.24234314 201.07500061 190.23284912 201.98141479 C190.27125988 207.69464986 191.21281606 211.93383074 193.61721802 217.14044189 C197.40427165 220.83281918 200.13084797 222.04297501 205.42971802 222.39044189 C209.51877118 222.30791055 212.20986988 221.54107354 215.61721802 219.14044189 C219.80807708 213.32071004 220.21745098 208.66839277 220.22659302 201.61309814 C220.24312927 200.62418076 220.25966553 199.63526337 220.27670288 198.61637878 C220.32502872 195.47850233 220.34651992 192.34111 220.36721802 189.20294189 C220.39539053 187.06685003 220.42531974 184.93078057 220.45706177 182.79473877 C220.53078316 177.57672725 220.58251586 172.35885102 220.61721802 167.14044189 C222.4933398 170.30644552 224.36792783 173.47335358 226.24221802 176.64044189 C226.82108765 177.6169873 227.39995728 178.59353271 227.99636841 179.59967041 C231.16052002 184.94710785 234.296986 190.30823087 237.38674927 195.69903564 C238.30689819 197.29811768 238.30689819 197.29811768 239.24563599 198.92950439 C240.42650269 200.9846268 241.60158244 203.04308834 242.77005005 205.10528564 C248.41390088 215.40550915 248.41390088 215.40550915 257.61721802 222.14044189 C264.03687378 222.77188344 267.38484234 221.93647915 272.61721802 218.14044189 C275.7495705 213.96397192 276.73630108 210.09836462 276.75765991 204.94810486 C276.76337006 204.11972107 276.7690802 203.29133728 276.77496338 202.43785095 C276.77608124 201.53750626 276.7771991 200.63716156 276.77835083 199.70953369 C276.78331573 198.75459015 276.78828064 197.79964661 276.793396 196.81576538 C276.80799919 193.65705647 276.81481652 190.49839777 276.82034302 187.33966064 C276.82609591 185.14254251 276.83185363 182.94542439 276.83761597 180.74830627 C276.84812066 176.1408159 276.85396684 171.53334295 276.85745239 166.92584229 C276.86293646 161.02782851 276.88696504 155.13004567 276.91542435 149.2321043 C276.93406632 144.69301179 276.93925716 140.15397474 276.94078827 135.61484718 C276.94381171 133.44078115 276.95182979 131.26671601 276.96497345 129.09268761 C276.9820665 126.04812519 276.9801456 123.00412489 276.97366333 119.95953369 C276.98287811 119.06526169 276.9920929 118.17098969 277.00158691 117.24961853 C276.95848733 110.77330259 275.95728742 105.93342796 271.67971802 100.82794189 C267.32904123 97.26829725 264.30861813 96.64980395 258.61721802 97.14044189 C253.27982328 99.12888307 250.16387978 102.04711837 247.61721802 107.14044189 C247.4995433 108.58992119 247.44032534 110.04438185 247.41189575 111.49835205 C247.39195053 112.39913483 247.37200531 113.2999176 247.35145569 114.22799683 C247.32638695 115.68899307 247.32638695 115.68899307 247.30081177 117.17950439 C247.28003067 118.17549652 247.25924957 119.17148865 247.23783875 120.19766235 C247.1723276 123.38685043 247.11345097 126.57612247 247.05471802 129.76544189 C247.01153429 131.92430483 246.96792005 134.0831592 246.92385864 136.24200439 C246.81664465 141.54139419 246.71488117 146.84086795 246.61721802 152.14044189 C246.07033577 151.21679588 246.07033577 151.21679588 245.5124054 150.27449036 C244.77767754 149.03359901 244.77767754 149.03359901 244.02810669 147.76763916 C243.5129953 146.89761261 242.99788391 146.02758606 242.46716309 145.13119507 C241.34227005 143.23157796 240.21681044 141.33229635 239.09109497 139.4331665 C235.97617259 134.16829769 232.88964641 128.88924845 229.84768677 123.58184814 C228.92753784 121.98276611 228.92753784 121.98276611 227.98880005 120.35137939 C226.80793334 118.29625699 225.63285359 116.23779545 224.46438599 114.17559814 C218.82140142 103.87415555 218.82140142 103.87415555 209.61721802 97.14044189 C202.18227533 96.42093131 198.546364 98.0529637 193.30471802 103.57794189 Z " fill="#000000" transform="translate(154.38278198242188,-0.14044189453125)"/>
<path d="M0 0 C7.56684315 5.1695601 12.37834415 11.7818897 14.12060547 20.84106445 C15.32673534 27.97511691 15.25098899 35.07911412 15.1953125 42.29296875 C15.19157278 43.73456118 15.18873035 45.17615618 15.18673706 46.61775208 C15.17917596 50.37418898 15.15959415 54.13046614 15.1373291 57.88684082 C15.11670658 61.73508545 15.10770061 65.58335642 15.09765625 69.43164062 C15.07633948 76.95449916 15.04229699 84.47722702 15 92 C15.85475922 91.99111755 16.70951843 91.98223511 17.59017944 91.9730835 C25.68088794 91.8926364 33.77146036 91.8318834 41.86247826 91.79275131 C46.02128665 91.77195608 50.17976208 91.74378797 54.33837891 91.69824219 C58.35844784 91.65449384 62.37819831 91.63080239 66.39848709 91.62049103 C67.9253706 91.61315125 69.45223845 91.59881945 70.97898483 91.57707977 C82.53948604 91.4191484 91.93130938 92.77301054 101.1796875 100.16796875 C108.9700952 108.00852929 111.30233979 117.40705713 111.29052734 128.06542969 C111.29724457 128.94611115 111.30396179 129.8267926 111.31088257 130.73416138 C111.32979621 133.63012419 111.33378359 136.52585436 111.3359375 139.421875 C111.34237065 141.4481821 111.3490994 143.47448827 111.35610962 145.50079346 C111.36806627 149.74404044 111.37179216 153.98720612 111.37060547 158.23046875 C111.37040252 163.64496561 111.3976874 169.05893621 111.43214989 174.47330856 C111.45448266 178.6582881 111.45844103 182.84314235 111.45738602 187.02817535 C111.45973304 189.02310242 111.46850541 191.01803342 111.48405075 193.01290131 C111.58207331 206.89236143 111.34463428 218.49755901 101.22265625 229.0546875 C94.94836527 234.54607046 88.68677756 237.10311442 80.409729 237.16062927 C78.70233551 237.17569771 78.70233551 237.17569771 76.96044922 237.19107056 C75.71569824 237.19690155 74.47094727 237.20273254 73.18847656 237.20874023 C71.21714752 237.22341591 71.21714752 237.22341591 69.20599365 237.23838806 C64.85090058 237.26971324 60.49578876 237.29003194 56.140625 237.30859375 C55.3987453 237.31189107 54.6568656 237.31518839 53.89250469 237.31858563 C46.89147983 237.34936163 39.89045051 237.37605847 32.88937759 237.39300442 C23.94698672 237.41490658 15.00519652 237.45688053 6.06304574 237.52644199 C-0.23179655 237.5737409 -6.5264771 237.59794566 -12.82149148 237.6052013 C-16.57787665 237.6101483 -20.33358398 237.62513687 -24.08977509 237.6649456 C-27.62605671 237.70193148 -31.16127671 237.71018382 -34.69771576 237.69693947 C-36.60469613 237.69701873 -38.51160394 237.72679152 -40.41833496 237.75762939 C-48.19035465 237.6920943 -52.46142863 236.48005498 -58 231 C-58.85578329 230.21393702 -58.85578329 230.21393702 -59.72885513 229.41199398 C-61.49414142 227.76335488 -63.20133856 226.06928761 -64.90332031 224.35546875 C-65.54179901 223.72049469 -66.18027771 223.08552063 -66.83810425 222.43130493 C-68.92313087 220.35499899 -71.00085206 218.271561 -73.078125 216.1875 C-74.53655321 214.73042088 -75.99527804 213.27363861 -77.45428467 211.81713867 C-80.50012697 208.77423426 -83.54234961 205.72776913 -86.58203125 202.67871094 C-90.47113931 198.77818891 -94.3691855 194.88674256 -98.26997757 190.99790955 C-101.27964714 187.99547731 -104.28452434 184.98828516 -107.28798676 181.97964478 C-108.72338993 180.54291135 -110.16026948 179.10765131 -111.59867096 177.67391968 C-113.60875554 175.66893332 -115.61228599 173.65761396 -117.61425781 171.64453125 C-118.49955673 170.76530502 -118.49955673 170.76530502 -119.40274048 169.86831665 C-125.54896223 163.65898854 -129.81299116 157.52453065 -130.0703125 148.546875 C-129.63813429 140.25922217 -126.29407819 134.9520324 -120.375 129.3125 C-110.12380218 120.81198113 -98.90957328 119.24894908 -86 120 C-75.37820174 121.66586476 -66.53526026 128.29571697 -57.78466797 134.13793945 C-56.16067581 135.22181694 -56.16067581 135.22181694 -54.50387573 136.32759094 C-53.67759674 136.87948593 -52.85131775 137.43138092 -52 138 C-51.99668985 137.43199991 -51.99337971 136.86399982 -51.98996925 136.27878761 C-51.90854974 122.42215989 -51.81627403 108.5656405 -51.71247292 94.70916176 C-51.6624708 88.00811469 -51.61626814 81.30708331 -51.578125 74.60595703 C-51.54115981 68.13494382 -51.49476934 61.66405962 -51.44193649 55.1931572 C-51.42345219 52.72854254 -51.4083224 50.26390029 -51.39665604 47.79924393 C-51.37969144 44.33819717 -51.35063168 40.87744204 -51.31884766 37.41650391 C-51.31668747 36.40517395 -51.31452728 35.39384399 -51.31230164 34.35186768 C-51.17624062 22.69849012 -49.26834628 13.14192999 -41.40234375 4.1796875 C-30.63979018 -5.94678135 -12.63615459 -7.66789991 0 0 Z " fill="#000000" transform="translate(401,275)"/>
<path d="M0 0 C3.45221044 2.43223918 5.25714161 5.04873142 6.75 8.9375 C7.29967863 12.53029525 7.28798893 16.06233729 7.24609375 19.69140625 C7.24754898 20.71048569 7.24900421 21.72956512 7.25050354 22.77952576 C7.24884969 24.92523062 7.23734629 27.07094799 7.21655273 29.21655273 C7.18756026 32.49318993 7.19596303 35.76821106 7.20898438 39.04492188 C7.20274736 41.1354245 7.1943567 43.22592203 7.18359375 45.31640625 C7.18652939 46.29154678 7.18946503 47.26668732 7.19248962 48.27137756 C7.1193099 53.56724778 6.75240137 57.38038758 3.75 61.9375 C-0.40524918 65.69701116 -3.70919413 66.52103792 -9.13671875 66.265625 C-13.4059233 65.60275405 -16.53256722 63.19841934 -19.25 59.9375 C-20.20896364 57.06060909 -20.39216969 55.18654845 -20.42700195 52.1940918 C-20.43983719 51.23266769 -20.45267242 50.27124359 -20.46589661 49.28068542 C-20.47328354 48.24317642 -20.48067047 47.20566742 -20.48828125 46.13671875 C-20.496353 45.06758743 -20.50442474 43.99845612 -20.51274109 42.89692688 C-20.52657591 40.63320536 -20.53730076 38.36946303 -20.54516602 36.10571289 C-20.56238124 32.64884826 -20.60627416 29.19293939 -20.65039062 25.73632812 C-20.66051753 23.53646536 -20.66903364 21.33659447 -20.67578125 19.13671875 C-20.69328934 18.10528244 -20.71079742 17.07384613 -20.72883606 16.01115417 C-20.7106734 9.98368293 -20.2652282 6.52865076 -16.25 1.9375 C-11.25268127 -2.22693227 -5.87491055 -1.92064383 0 0 Z " fill="#000000" transform="translate(226.25,127.0625)"/>
</svg>
