<?xml version="1.0" encoding="UTF-8"?>
<svg version="1.1" xmlns="http://www.w3.org/2000/svg" width="512" height="512">
<path d="M0 0 C9.17809027 7.31284182 17.28228602 16.13634904 25.56393433 24.42349243 C27.13280674 25.9897775 28.70189241 27.55584898 30.27117169 29.12172639 C34.56430115 33.4068271 38.85432628 37.69502374 43.14381313 41.98377037 C47.30085821 46.13914888 51.46022914 50.29219725 55.61948445 54.44536327 C66.74796315 65.55783663 77.8714139 76.67533721 88.99428891 87.79341899 C94.25751028 93.05430051 99.5213629 98.31455023 104.78529045 103.57472514 C122.81225806 121.5888667 140.8381743 139.60405933 158.86045647 157.62288857 C159.99012024 158.75233071 161.11978408 159.88177277 162.24944801 161.01121476 C163.38177379 162.1433199 164.5140995 163.27542513 165.64642513 164.40753043 C167.91792725 166.67859 170.18943165 168.94964729 172.4609375 171.22070312 C173.02413098 171.78378722 173.58732446 172.34687131 174.16758441 172.92701855 C192.44965934 191.2054588 210.7378772 209.47773632 229.02977293 227.74634819 C248.38117751 247.07316529 267.72714662 266.40540655 287.06685936 285.74392354 C289.18885145 287.86574418 291.31086552 289.98754283 293.43289566 292.10932541 C293.955375 292.63174898 294.47785433 293.15417254 295.01616638 293.69242713 C303.42594359 302.10105349 311.84064724 310.50473309 320.25711718 318.90665987 C328.7101581 327.34534627 337.15763532 335.78957028 345.59947734 344.23946001 C350.17335707 348.81725487 354.74965045 353.39256759 359.33247948 357.9614048 C363.5256414 362.14188101 367.71185159 366.3291886 371.892581 370.52209704 C373.40788958 372.03937176 374.92575022 373.5541028 376.44637643 375.0660481 C378.51016244 377.11879415 380.56451443 379.18054552 382.61675835 381.24482155 C383.21143874 381.83190675 383.80611913 382.41899195 384.41882014 383.02386761 C390.15011073 388.828123 393.69993885 394.49908272 394.25 402.75 C394.15084549 409.40574635 391.71844869 415.28155131 387 420 C380.84268105 424.25833273 375.45493347 425.69633994 368 425 C354.55716604 421.74770146 344.19916262 407.26489076 334.83543968 397.75777817 C330.56448857 393.42548353 326.2777927 389.10879243 321.99414062 384.7890625 C316.56320603 379.31008586 311.13703637 373.8265932 305.72583008 368.328125 C301.33114089 363.86338481 296.92211494 359.41326619 292.50301552 354.97269058 C290.82423276 353.28029392 289.15088565 351.58248759 287.48308372 349.87926865 C285.16140117 347.50957877 282.82192407 345.15896778 280.47729492 342.81201172 C279.79097488 342.10254898 279.10465485 341.39308624 278.39753723 340.66212463 C274.93193712 336.97111501 274.93193712 336.97111501 270.23799133 335.97634888 C267.08633384 337.41790841 263.99770615 338.93849859 260.9375 340.5625 C219.39088094 361.76653146 173.70672123 367.1420174 129 353 C80.44174195 337.14404015 35.96475004 303.72535492 2.83984375 265.1171875 C0.81301084 262.78482351 -1.28082553 260.52201597 -3.375 258.25 C-16.3555086 243.78537182 -25.95953803 228.34666314 -25.34765625 208.234375 C-23.43393623 190.43032805 -15.7107366 178.06759557 -4 165 C-3.20980469 164.11054688 -2.41960937 163.22109375 -1.60546875 162.3046875 C-0.1341785 160.66075898 1.34356897 159.02258375 2.828125 157.390625 C4.28644098 155.78542828 5.7342691 154.1706457 7.171875 152.546875 C14.62787785 144.13904199 22.4084495 136.0569567 30.9609375 128.75390625 C34.23397193 125.93859503 37.41183324 123.01799336 40.60546875 120.11328125 C47.5323475 114 47.5323475 114 50 114 C45.42106185 108.64267299 40.674203 103.5433665 35.65942383 98.59350586 C34.96256973 97.90132462 34.26571564 97.20914337 33.54774475 96.49598694 C32.04891525 95.00758232 30.54898382 93.52028665 29.0480442 92.03400993 C26.66988782 89.67804695 24.29586511 87.31799129 21.92301941 84.9566803 C15.18120323 78.24830571 8.43519923 71.54418746 1.67895508 64.8503418 C-2.46581261 60.74327255 -6.60318921 56.62888027 -10.73595619 52.50973701 C-12.30681916 50.9469085 -13.88045075 49.38685759 -15.45693016 47.82969475 C-17.6607952 45.65238365 -19.85513232 43.46587129 -22.04760742 41.27709961 C-22.69548218 40.64158173 -23.34335693 40.00606384 -24.01086426 39.35128784 C-29.93094417 33.40482925 -33.68255143 27.76172862 -34.25 19.25 C-34.15084549 12.59425365 -31.71844869 6.71844869 -27 2 C-18.65546258 -3.7709885 -9.08272462 -5.22709297 0 0 Z M106 169 C100.54484064 179.94668645 95.53875348 191.60866995 95 204 C94.9484375 205.0003125 94.896875 206.000625 94.84375 207.03125 C94.22987191 229.74473925 101.96971305 250.91381428 117 268 C117.66644531 268.76183594 118.33289063 269.52367187 119.01953125 270.30859375 C132.35265539 284.58171551 153.4121791 295.14835561 173 296 C174.0003125 296.0515625 175.000625 296.103125 176.03125 296.15625 C192.62609901 296.60475943 207.24410974 292.53119622 222 285 C220.01803995 282.64962053 218.01661925 280.3206178 216 278 C215.1642041 277.03594238 214.3284082 276.07188477 213.46728516 275.07861328 C201.55986909 260.08551876 201.55986909 260.08551876 185.5546875 251.5078125 C181.62376612 251.43643941 177.83833986 252.03232355 173.98193359 252.75146484 C166.81700172 253.64994977 159.89134736 249.18785602 154.1875 245.375 C145.55234063 238.63111473 139.94436261 229.83711101 138 219 C138.0855359 217.59310263 138.21849272 216.18855576 138.39013672 214.78955078 C139.20712114 207.65155833 139.59769762 201.53133107 135.1159668 195.55151367 C131.25564242 191.12359301 126.93584968 187.22224706 122.5625 183.3125 C121.07320719 181.91011638 119.58813476 180.50323665 118.10742188 179.09179688 C112.50866681 172.84238262 112.50866681 172.84238262 106 169 Z " fill="#F37829" transform="translate(76,45)"/>
<path d="M0 0 C0.82854492 0.68642578 0.82854492 0.68642578 1.67382812 1.38671875 C16.28973144 13.52506849 30.77562139 26.44822992 43.16015625 40.8828125 C45.18698916 43.21517649 47.28082553 45.47798403 49.375 47.75 C62.3555086 62.21462818 71.95953803 77.65333686 71.34765625 97.765625 C69.4335497 115.57326796 61.70771478 127.92701529 50 141 C49.23300781 141.86625 48.46601563 142.7325 47.67578125 143.625 C45.46733501 146.09909417 43.23532142 148.55017804 41 151 C40.08023643 152.02429734 39.16098972 153.04905898 38.2421875 154.07421875 C24.3218399 169.53494241 24.3218399 169.53494241 17.875 170.4375 C5.33283432 169.02144904 -7.78308924 151.20084036 -16.56153107 142.63897514 C-19.85168368 139.43076094 -23.15829389 136.24503462 -26.51367188 133.10498047 C-51.27207584 109.89797297 -51.27207584 109.89797297 -51.81298828 99.28799438 C-51.60573426 96.13183858 -51.08589502 93.16304671 -50.34838867 90.09082031 C-48.07995871 76.47706123 -56.93124826 59.17694394 -64 48 C-66.49991667 44.50739293 -69.17011162 41.22952911 -72 38 C-72.59296875 37.31164062 -73.1859375 36.62328125 -73.796875 35.9140625 C-86.73884177 21.92125227 -108.04295197 11.96000177 -127 11 C-128.47643727 11.16022086 -129.94912485 11.35886415 -131.41577148 11.59228516 C-137.91144852 12.48924213 -143.86651301 12.86708994 -149.6741333 9.40661621 C-156.49491671 4.10797659 -162.23963403 -2.27917393 -168.0625 -8.625 C-169.86847456 -10.50570343 -171.67899501 -12.38205265 -173.49414062 -14.25390625 C-189.61526861 -31.06874468 -189.61526861 -31.06874468 -190.21484375 -37.1953125 C-189.54004106 -41.89041855 -188.69561763 -44.08271984 -185 -47 C-182.35794705 -48.03512175 -179.91383079 -48.84794952 -177.1875 -49.5625 C-176.40487793 -49.77156982 -175.62225586 -49.98063965 -174.81591797 -50.19604492 C-111.32294921 -66.25223716 -48.55918735 -40.69608038 0 0 Z " fill="#F25E21" transform="translate(390,161)"/>
</svg>
