<?xml version="1.0" encoding="UTF-8"?>
<svg version="1.1" xmlns="http://www.w3.org/2000/svg" width="512" height="512">
<path d="M0 0 C1.69821308 1.4878604 3.38613313 2.98756806 5.0625 4.5 C5.90039062 5.19609375 6.73828125 5.8921875 7.6015625 6.609375 C28.43304395 24.28066267 41.75941563 52.413117 44.0625 79.5 C45.67815411 109.52450339 38.55778529 139.6398741 18.0625 162.5 C16.96421875 163.77617187 16.96421875 163.77617187 15.84375 165.078125 C11.25477278 170.32716059 6.44599643 175.06998387 1.0625 179.5 C3.87332825 181.3738855 6.68901021 182.73062374 9.76147461 184.11303711 C21.98782622 189.6401641 36.84352806 196.79375408 44.31640625 208.45703125 C46.06981996 213.25826356 45.80589261 218.70020736 43.875 223.375 C39.49682593 228.50803167 36.26024103 229.97220347 29.66015625 230.71484375 C24.01090482 230.24761243 19.91024546 226.74677473 15.625 223.3125 C0.36546727 211.75509529 -17.37460572 204.36959573 -36.74023438 204.33886719 C-37.49890808 204.33390228 -38.25758179 204.32893738 -39.03924561 204.32382202 C-41.53658985 204.30928094 -44.03387045 204.30240965 -46.53125 204.296875 C-47.39087845 204.29404762 -48.2505069 204.29122025 -49.13618469 204.28830719 C-53.6910533 204.27334228 -58.2458905 204.2640975 -62.80078125 204.25976562 C-67.46945633 204.25430448 -72.13783631 204.23031879 -76.80641937 204.20179367 C-80.4270507 204.18301624 -84.04761332 204.17795359 -87.66828918 204.17642975 C-89.38720807 204.17343344 -91.10612664 204.16550932 -92.82499695 204.15224457 C-117.39842603 203.97624007 -140.29681388 210.77951134 -158.9375 227.5 C-159.84371094 228.31210937 -160.74992187 229.12421875 -161.68359375 229.9609375 C-177.59184352 245.00868555 -189.01584314 266.98804524 -190.11450195 289.05517578 C-190.16884817 292.50518641 -190.21388488 295.95442179 -190.23266602 299.40478516 C-190.24425071 300.88860561 -190.2648037 302.37238235 -190.29418945 303.85595703 C-190.33679576 306.01102709 -190.35301546 308.16487412 -190.36328125 310.3203125 C-190.37786377 311.60180176 -190.39244629 312.88329102 -190.4074707 314.20361328 C-190.20326217 317.552096 -190.20326217 317.552096 -188.12524414 319.88061523 C-185.00926478 322.18708673 -181.80037286 322.77210727 -178.0625 323.4375 C-176.79913818 323.67509033 -176.79913818 323.67509033 -175.51025391 323.91748047 C-166.15440358 325.59293896 -156.73045878 326.8565217 -147.3125 328.125 C-146.54971741 328.22932343 -145.78693481 328.33364685 -145.0010376 328.44113159 C-125.20324973 331.123469 -105.40350722 332.61270005 -85.42578125 332.7734375 C-84.72369034 332.77927479 -84.02159943 332.78511208 -83.29823303 332.79112625 C-76.80166745 332.84189194 -70.30510973 332.87355524 -63.80834961 332.88085938 C-60.19901552 332.88588399 -56.59022048 332.91011728 -52.98106956 332.94618607 C-50.97874902 332.96055733 -48.97631037 332.95339515 -46.97395325 332.94564819 C-40.10323732 333.02053354 -35.47534756 333.27282101 -29.9375 337.5 C-26.7556341 341.14198866 -25.59983046 345.26925586 -25.8125 350.0625 C-26.65213317 354.91557972 -28.92797865 358.61665895 -32.9375 361.5 C-39.30900413 363.8850259 -45.44430221 363.80533595 -52.19140625 363.80078125 C-53.98654411 363.8091803 -53.98654411 363.8091803 -55.81794739 363.81774902 C-59.71209194 363.82968601 -63.60585558 363.82336652 -67.5 363.8125 C-68.843933 363.81058128 -70.18786611 363.80874036 -71.53179932 363.80697632 C-93.4455667 363.76517371 -115.16052489 363.03966456 -136.9375 360.5 C-137.72664795 360.40807373 -138.5157959 360.31614746 -139.32885742 360.22143555 C-199.95642909 353.07425831 -199.95642909 353.07425831 -212.18359375 339.8515625 C-218.30982054 331.63777959 -221.08226093 323.71199441 -221.140625 313.61328125 C-221.14632507 312.83800583 -221.15202515 312.06273041 -221.15789795 311.26396179 C-221.167339 309.61731319 -221.17387838 307.97064576 -221.17773438 306.32397461 C-221.18729193 303.86600929 -221.21825812 301.40893571 -221.25 298.95117188 C-221.34386111 285.1025977 -219.88177428 271.58137413 -215.25 258.4375 C-214.86763184 257.33100098 -214.86763184 257.33100098 -214.47753906 256.20214844 C-203.41370171 225.28420869 -180.73205421 199.8270271 -151.10693359 185.59545898 C-147.39962018 183.85984747 -143.67652438 182.1662606 -139.9375 180.5 C-139.9375 179.84 -139.9375 179.18 -139.9375 178.5 C-141.7159632 176.79375866 -143.51446086 175.17470683 -145.375 173.5625 C-166.93571016 154.2723425 -180.18289284 126.7596292 -182.11035156 97.91308594 C-183.41916817 68.18425164 -174.89954211 40.57314031 -155.9375 17.5 C-155.20144531 16.58734375 -154.46539062 15.6746875 -153.70703125 14.734375 C-139.3635666 -2.08375776 -119.16294895 -13.79062291 -97.9375 -19.5 C-96.75671875 -19.81839844 -95.5759375 -20.13679688 -94.359375 -20.46484375 C-62.41144756 -27.71662226 -25.70688034 -20.79821154 0 0 Z M-131.51953125 34.671875 C-147.54589293 53.4167633 -153.53962578 76.19726675 -151.9375 100.5 C-149.46016581 122.00632923 -137.21879848 141.62454556 -120.9375 155.5 C-103.01781779 169.56852244 -80.64233404 175.74682691 -58.03515625 173.03125 C-39.07444467 170.15108358 -23.77341817 161.71781873 -9.9375 148.5 C-8.99777344 147.67242187 -8.99777344 147.67242187 -8.0390625 146.828125 C5.55620733 134.40167927 13.49576795 113.7331466 14.34375 95.6640625 C14.99545138 71.83722412 7.77793989 50.18522739 -8.73779297 32.67651367 C-23.79083528 17.24985083 -43.1125954 7.57029657 -64.85986328 7.20703125 C-91.17247416 7.05818322 -112.99757103 15.47264119 -131.51953125 34.671875 Z " fill="#000000" transform="translate(324.9375,59.5)"/>
<path d="M0 0 C3.46450979 2.87263477 6.74656284 5.89215555 10 9 C10.61488281 9.54011719 11.22976563 10.08023437 11.86328125 10.63671875 C26.77688417 24.24752418 34.19234144 45.49009482 35.28125 65.2265625 C36.0629964 89.0385034 28.038883 111.06995524 12.06640625 128.828125 C-3.79723779 145.66050207 -24.92570051 154.77514411 -47.93237305 155.46801758 C-71.3210257 155.70699375 -92.35268742 148.57160391 -109.59375 132.3671875 C-110.3878125 131.58601562 -111.181875 130.80484375 -112 130 C-112.7734375 129.23945313 -113.546875 128.47890625 -114.34375 127.6953125 C-131.45195376 109.82544213 -136.68974715 87.30299462 -136.31640625 63.23046875 C-136.03220932 55.35738144 -134.58329976 48.44498521 -132 41 C-131.63777344 39.93910156 -131.27554687 38.87820313 -130.90234375 37.78515625 C-123.11168649 17.2653573 -106.58225745 0.3467423 -86.72558594 -8.67553711 C-58.48077685 -20.83991478 -24.94763875 -18.70120706 0 0 Z M-95 35 C-97.31321513 38.20559769 -99.22879036 41.46872041 -101 45 C-101.58394531 46.13308594 -101.58394531 46.13308594 -102.1796875 47.2890625 C-107.91752025 59.81177778 -108.23855457 74.19943036 -103.95703125 87.15625 C-101.41319067 93.67638509 -98.17078933 99.39410036 -94 105 C-92.88625 106.546875 -92.88625 106.546875 -91.75 108.125 C-80.91397467 119.45357193 -66.1376787 124.86789054 -50.6875 125.3125 C-34.59580925 124.99142166 -21.04805531 119.19514081 -9.69921875 107.921875 C1.25385266 96.06529409 5.50026742 81.81390621 5.20703125 65.91015625 C4.40627165 50.78637586 -2.8105993 37.12034968 -14 27 C-39.86569335 7.56335182 -73.59015288 9.4993428 -95 35 Z " fill="#000000" transform="translate(460,320)"/>
<path d="M0 0 C3.4074028 4.33669447 4.48193413 6.90433984 4.3125 12.6015625 C3.78419532 16.87752848 2.05994407 19.72999614 -1.10546875 22.5703125 C-3.69479564 24.4489138 -6.28402772 25.90627743 -9.15234375 27.31176758 C-25.87271337 35.52449514 -35.87352284 48.09631601 -41.9375 65.625 C-46.5368901 80.66883844 -44.39841838 96.70717172 -37.8125 110.75 C-30.04684261 125.32678606 -19.50212037 133.91498112 -4.875 141.1875 C-0.2345604 143.62836001 2.82369727 145.49681462 4.68359375 150.51171875 C5.57580342 155.48785722 4.76789782 159.75777049 3 164.4375 C-1.19874086 169.17801387 -6.35695141 170.55803709 -12.35351562 171.86694336 C-28.83444572 175.49951551 -41.32926541 183.55243603 -52.9375 195.625 C-53.63359375 196.3365625 -54.3296875 197.048125 -55.046875 197.78125 C-68.78212136 212.61045403 -75.34918265 231.13024596 -75.1875 251.125 C-75.19523437 252.11242187 -75.20296875 253.09984375 -75.2109375 254.1171875 C-75.20707031 255.52871094 -75.20707031 255.52871094 -75.203125 256.96875 C-75.20086914 257.81630859 -75.19861328 258.66386719 -75.19628906 259.53710938 C-75.12745743 261.84488144 -75.12745743 261.84488144 -72.9375 263.625 C-71.02824665 264.17136935 -71.02824665 264.17136935 -68.83203125 264.484375 C-68.01283203 264.63132812 -67.19363281 264.77828125 -66.34960938 264.9296875 C-64.63806961 265.22287388 -62.92449241 265.50444162 -61.20898438 265.7734375 C-55.09877648 266.89912764 -51.07984568 268.91885824 -46.9375 273.625 C-44.85900618 277.60877982 -44.54614615 281.13517435 -45.265625 285.59765625 C-46.7906685 290.19938636 -50.01082734 293.63432357 -54.27734375 295.828125 C-64.23167774 298.81004003 -79.50622354 294.7241945 -88.7421875 290.2734375 C-97.33272923 284.86457789 -102.57336015 277.53544226 -105.47021484 267.8425293 C-111.27569677 240.29227207 -101.78024562 210.61376426 -86.9375 187.625 C-78.261343 175.42808364 -67.3477364 164.93542616 -54.9375 156.625 C-54.050625 156.02429688 -53.16375 155.42359375 -52.25 154.8046875 C-50.15482994 153.39699512 -48.05203292 152.0033622 -45.9375 150.625 C-46.43378906 150.16351563 -46.93007812 149.70203125 -47.44140625 149.2265625 C-65.50983508 131.87812799 -74.68855505 107.70063094 -75.25 82.875 C-75.11542898 60.53351889 -67.624592 37.05807191 -51.625 20.9375 C-50.40439292 19.8238784 -49.17644335 18.7181853 -47.9375 17.625 C-47.133125 16.779375 -46.32875 15.93375 -45.5 15.0625 C-34.7785522 4.86404965 -14.56997319 -11.77997832 0 0 Z " fill="#000000" transform="translate(122.9375,83.375)"/>
<path d="M0 0 C10.24813384 8.663949 18.49656681 17.51826302 24.85546875 29.4140625 C25.32210937 30.20683594 25.78875 30.99960938 26.26953125 31.81640625 C37.33451658 51.67228483 38.46163379 76.76387256 32.85546875 98.4140625 C28.03410641 114.88514631 19.42824917 129.62708086 6.85546875 141.4140625 C7.42652344 141.80335938 7.99757813 142.19265625 8.5859375 142.59375 C40.77177631 164.80146708 40.77177631 164.80146708 43.79296875 177.2890625 C44.14606942 181.78463692 43.114255 185.52584647 40.85546875 189.4140625 C37.05166048 193.12277557 33.81203096 194.55365718 28.54296875 194.7265625 C27.43501953 194.78263672 27.43501953 194.78263672 26.3046875 194.83984375 C20.07163645 193.75626709 15.97674486 188.63117634 11.85546875 184.2265625 C0.43902212 172.47977888 -12.85938299 165.20859215 -29.01953125 161.9765625 C-34.69743616 160.75447414 -38.54256991 159.06138802 -42.14453125 154.4140625 C-44.27523542 150.33021283 -44.28829314 146.99417661 -43.82421875 142.5390625 C-42.28426633 137.72449861 -39.8451339 134.54452695 -35.421875 132.17578125 C-33.98041769 131.47368639 -32.53350937 130.78269951 -31.08203125 130.1015625 C-15.1244209 122.06852585 -4.44512833 111.06236375 1.92578125 94.234375 C7.52346295 77.25317254 5.67930433 59.48044209 -2.26953125 43.6015625 C-9.89221273 30.51325621 -19.94135499 23.1914124 -33.08203125 16.2890625 C-38.20845063 13.54668409 -41.26528336 11.05180617 -43.14453125 5.4140625 C-43.68084888 -1.02174901 -42.95673938 -4.33127224 -39.14453125 -9.5859375 C-26.45032182 -19.10659457 -10.66727373 -8.16196129 0 0 Z " fill="#000000" transform="translate(428.14453125,92.5859375)"/>
<path d="M0 0 C4.2033229 3.94857606 5.91364743 6.77795631 6.30859375 12.5078125 C6.31211484 15.99369028 6.23631966 19.4562785 6.0625 22.9375 C6.99191406 22.89109375 7.92132813 22.8446875 8.87890625 22.796875 C21.57574062 22.42616451 21.57574062 22.42616451 27.0625 26.9375 C30.71258467 30.82307401 30.5649248 35.18231259 30.4140625 40.27734375 C29.91499173 44.05364589 28.63224129 46.15940131 26.0625 48.9375 C21.8982547 52.11349143 18.31369881 52.31398015 13.25 52.125 C12.21069336 52.10469727 12.21069336 52.10469727 11.15039062 52.08398438 C9.45408735 52.04888845 7.75818864 51.99508943 6.0625 51.9375 C6.11470703 53.34902344 6.11470703 53.34902344 6.16796875 54.7890625 C6.19503906 56.03429687 6.22210938 57.27953125 6.25 58.5625 C6.30220703 60.40714844 6.30220703 60.40714844 6.35546875 62.2890625 C5.93229961 67.55892885 4.39439066 70.76416775 0.4375 74.25 C-4.8761714 76.9068357 -9.48309542 77.7399015 -15.1875 75.875 C-18.81668285 73.31807572 -22.05224034 70.45666484 -23.5703125 66.13671875 C-24.04487718 63.29437922 -24.03130636 60.56768551 -24 57.6875 C-23.99097656 56.60984375 -23.98195313 55.5321875 -23.97265625 54.421875 C-23.96105469 53.60203125 -23.94945312 52.7821875 -23.9375 51.9375 C-25.43990234 52.04191406 -25.43990234 52.04191406 -26.97265625 52.1484375 C-39.07340298 52.73942187 -39.07340298 52.73942187 -43.25 49.25 C-46.63200227 45.53846931 -47.79478555 42.507359 -48.25 37.5 C-47.78787016 32.23171986 -46.30234 29.16918488 -42.375 25.625 C-38.25842121 22.77506084 -35.83545895 22.82933674 -30.8125 22.875 C-29.53117187 22.88402344 -28.24984375 22.89304687 -26.9296875 22.90234375 C-25.94226563 22.91394531 -24.95484375 22.92554688 -23.9375 22.9375 C-23.96070313 22.21304687 -23.98390625 21.48859375 -24.0078125 20.7421875 C-24.15801917 12.69540184 -23.68672547 7.02491521 -17.9375 0.9375 C-12.66033172 -2.36216731 -5.71313779 -2.0664541 0 0 Z " fill="#000000" transform="translate(417.9375,352.0625)"/>
</svg>
